# Blender v3.2.0 OBJ File: ''
# www.blender.org
mtllib cube.mtl
o Cube
v 1.000000 2.000000 -1.000000
v 1.000000 0.000000 -1.000000
v 1.000000 2.000000 1.000000
v 1.000000 0.000000 1.000000
v -1.000000 2.000000 -1.000000
v -1.000000 0.000000 -1.000000
v -1.000000 2.000000 1.000000
v -1.000000 0.000000 1.000000
vt 0.007306 0.011282
vt 0.996631 0.011282
vt 0.996631 1.000607
vt 0.007306 1.000607
vt 0.010579 0.008572
vt 0.999342 0.008572
vt 0.999342 0.997334
vt 0.010579 0.997334
vt -0.016995 -0.014988
vt 1.016995 -0.014988
vt 1.016995 1.019003
vt -0.016995 1.019003
vt -0.005869 -0.007877
vt 1.011853 -0.007877
vt 1.011853 1.009845
vt -0.005869 1.009845
vt -0.004463 -0.004463
vt 0.996650 -0.004463
vt 0.996650 0.996650
vt -0.004463 0.996650
vt 0.003462 0.002478
vt 1.006459 0.002478
vt 1.006459 1.005475
vt 0.003462 1.005475
vn 0.0000 1.0000 0.0000
vn 0.0000 0.0000 1.0000
vn -1.0000 0.0000 0.0000
vn 0.0000 -1.0000 0.0000
vn 1.0000 0.0000 0.0000
vn 0.0000 0.0000 -1.0000
usemtl None
s off
f 1/1/1 5/2/1 7/3/1 3/4/1
f 4/5/2 3/6/2 7/7/2 8/8/2
f 8/9/3 7/10/3 5/11/3 6/12/3
f 6/13/4 2/14/4 4/15/4 8/16/4
f 2/17/5 1/18/5 3/19/5 4/20/5
f 6/21/6 5/22/6 1/23/6 2/24/6
